<!--?xml version="1.0" encoding="UTF-8" standalone="no"?-->
<svg width="100%" height="100%" viewBox="0 0 2084 2084" version="1.1" xmlns="http://www.w3.org/2000/svg" xmlns:xlink="http://www.w3.org/1999/xlink" xml:space="preserve" xmlns:serif="http://www.serif.com/" style="fill-rule:evenodd;clip-rule:evenodd;stroke-linejoin:round;stroke-miterlimit:2;">
    <style>
/***************************************************
 * Generated by SVG Artista on 1/29/2023, 6:05:21 PM
 * MIT license (https://opensource.org/licenses/MIT)
 * W. https://svgartista.net
 **************************************************/

svg .svg-elem-1{fill:transparent;-webkit-transition:fill 0.7s cubic-bezier(0.47,0,0.745,0.715) 0.8s;transition:fill 0.7s cubic-bezier(0.47,0,0.745,0.715) 0.8s}svg.active .svg-elem-1{fill:rgb(255,255,255)}svg .svg-elem-2{fill:transparent;-webkit-transition:fill 0.7s cubic-bezier(0.47,0,0.745,0.715) 0.9s;transition:fill 0.7s cubic-bezier(0.47,0,0.745,0.715) 0.9s}svg.active .svg-elem-2{fill:rgb(255,255,255)}svg .svg-elem-3{fill:transparent;-webkit-transition:fill 0.7s cubic-bezier(0.47,0,0.745,0.715) 1s;transition:fill 0.7s cubic-bezier(0.47,0,0.745,0.715) 1s}svg.active .svg-elem-3{fill:rgb(255,255,255)}svg .svg-elem-4{fill:transparent;-webkit-transition:fill 0.7s cubic-bezier(0.47,0,0.745,0.715) 1.1s;transition:fill 0.7s cubic-bezier(0.47,0,0.745,0.715) 1.1s}svg.active .svg-elem-4{fill:rgb(255,255,255)}svg .svg-elem-5{fill:transparent;-webkit-transition:fill 0.7s cubic-bezier(0.47,0,0.745,0.715) 1.2000000000000002s;transition:fill 0.7s cubic-bezier(0.47,0,0.745,0.715) 1.2000000000000002s}svg.active .svg-elem-5{fill:rgb(255,255,255)}svg .svg-elem-6{fill:transparent;-webkit-transition:fill 0.7s cubic-bezier(0.47,0,0.745,0.715) 1.3s;transition:fill 0.7s cubic-bezier(0.47,0,0.745,0.715) 1.3s}svg.active .svg-elem-6{fill:rgb(255,255,255)}svg .svg-elem-7{fill:transparent;-webkit-transition:fill 0.7s cubic-bezier(0.47,0,0.745,0.715) 1.4000000000000001s;transition:fill 0.7s cubic-bezier(0.47,0,0.745,0.715) 1.4000000000000001s}svg.active .svg-elem-7{fill:rgb(255,255,255)}svg .svg-elem-8{fill:transparent;-webkit-transition:fill 0.7s cubic-bezier(0.47,0,0.745,0.715) 1.5s;transition:fill 0.7s cubic-bezier(0.47,0,0.745,0.715) 1.5s}svg.active .svg-elem-8{fill:rgb(255,255,255)}svg .svg-elem-9{fill:transparent;-webkit-transition:fill 0.7s cubic-bezier(0.47,0,0.745,0.715) 1.6s;transition:fill 0.7s cubic-bezier(0.47,0,0.745,0.715) 1.6s}svg.active .svg-elem-9{fill:rgb(255,255,255)}svg .svg-elem-10{fill:transparent;-webkit-transition:fill 0.7s cubic-bezier(0.47,0,0.745,0.715) 1.7000000000000002s;transition:fill 0.7s cubic-bezier(0.47,0,0.745,0.715) 1.7000000000000002s}svg.active .svg-elem-10{fill:rgb(255,255,255)}svg .svg-elem-11{fill:transparent;-webkit-transition:fill 0.7s cubic-bezier(0.47,0,0.745,0.715) 1.8s;transition:fill 0.7s cubic-bezier(0.47,0,0.745,0.715) 1.8s}svg.active .svg-elem-11{fill:rgb(255,255,255)}svg .svg-elem-12{fill:transparent;-webkit-transition:fill 0.7s cubic-bezier(0.47,0,0.745,0.715) 1.9000000000000001s;transition:fill 0.7s cubic-bezier(0.47,0,0.745,0.715) 1.9000000000000001s}svg.active .svg-elem-12{fill:rgb(255,255,255)}svg .svg-elem-13{fill:transparent;-webkit-transition:fill 0.7s cubic-bezier(0.47,0,0.745,0.715) 2s;transition:fill 0.7s cubic-bezier(0.47,0,0.745,0.715) 2s}svg.active .svg-elem-13{fill:rgb(255,255,255)}svg .svg-elem-14{fill:transparent;-webkit-transition:fill 0.7s cubic-bezier(0.47,0,0.745,0.715) 2.1s;transition:fill 0.7s cubic-bezier(0.47,0,0.745,0.715) 2.1s}svg.active .svg-elem-14{fill:rgb(255,255,255)}svg .svg-elem-15{fill:transparent;-webkit-transition:fill 0.7s cubic-bezier(0.47,0,0.745,0.715) 2.2s;transition:fill 0.7s cubic-bezier(0.47,0,0.745,0.715) 2.2s}svg.active .svg-elem-15{fill:rgb(255,255,255)}svg .svg-elem-16{fill:transparent;-webkit-transition:fill 0.7s cubic-bezier(0.47,0,0.745,0.715) 2.3s;transition:fill 0.7s cubic-bezier(0.47,0,0.745,0.715) 2.3s}svg.active .svg-elem-16{fill:rgb(255,255,255)}svg .svg-elem-17{fill:transparent;-webkit-transition:fill 0.7s cubic-bezier(0.47,0,0.745,0.715) 2.4000000000000004s;transition:fill 0.7s cubic-bezier(0.47,0,0.745,0.715) 2.4000000000000004s}svg.active .svg-elem-17{fill:rgb(255,255,255)}
</style>
    <g id="content">
        <path d="M366.067,1703.83c0.9,18 9.6,67.2 12.9,83.7l16.8,82.8l75,0l46.5,-234l-56.4,0l-20.4,120c-4.5,26.7 -7.2,48 -8.1,66.3l-3,0c-1.5,-18 -4.8,-39.6 -10.8,-66.3l-26.1,-120l-53.1,0l-24.9,120c-5.7,27.9 -9,45.6 -11.1,66.3l-3,0c-1.2,-21 -3.9,-39.6 -9,-66.3l-23.1,-120l-57,0l46.5,234l78.3,0l14.7,-81.6c3.3,-18 11.4,-67.2 12.3,-84.9l3,0Z" style="fill-rule: nonzero;" class="svg-elem-1"></path>
        <path d="M680.767,1636.33l-0,93l-78,0l-0,-93l-55.5,0l-0,234l55.5,0l-0,-97.5l78,0l-0,97.5l55.5,0l-0,-234l-55.5,0Z" style="fill-rule: nonzero;" class="svg-elem-2"></path>
        <rect x="784.267" y="1636.33" width="55.5" height="234" style="fill-rule: nonzero;" class="svg-elem-3"></rect>
        <path d="M1049.77,1636.33l-180,0l-0,43.5l63,0l-0,190.5l54,0l-0,-190.5l63,0l-0,-43.5Z" style="fill-rule: nonzero;" class="svg-elem-4"></path>
        <path d="M1133.77,1829.83l-0,-58.5l78,0l-0,-39l-78,0l-0,-55.5l86.7,0l-0,-40.5l-140.7,0l-0,234l143.4,0l-0,-40.5l-89.4,0Z" style="fill-rule: nonzero;" class="svg-elem-5"></path>
        <path d="M1465.27,1676.83l-0,-40.5l-140.7,0l-0,234l54,0l-0,-93.3l78,0l-0,-39l-78,0l-0,-61.2l86.7,0Z" style="fill-rule: nonzero;" class="svg-elem-6"></path>
        <path d="M1579.87,1633.33c-58.5,0 -99.6,36 -99.6,120c-0,84 41.1,120 99.6,120c58.5,0 99.6,-36 99.6,-120c-0,-84 -41.1,-120 -99.6,-120Zm-0,201c-26.4,0 -41.1,-21.6 -41.1,-81c-0,-59.4 14.7,-81 41.1,-81c26.4,0 41.1,21.6 41.1,81c-0,59.4 -14.7,81 -41.1,81Z" style="fill-rule: nonzero;" class="svg-elem-7"></path>
        <path d="M1872.07,1636.33l-61.2,0l-31.5,75.6l-31.2,-75.6l-61.2,0l62.7,117l-62.7,117l61.2,0l31.2,-75.6l31.5,75.6l61.2,0l-62.7,-117l62.7,-117Z" style="fill-rule: nonzero;" class="svg-elem-8"></path>
        <g id="torii">
            <g>
                <path d="M1041.52,783.723l-0.153,125c311.144,0.382 604.694,48.676 604.694,48.676l20.299,-123.341c0,-0 -303.328,-49.94 -624.84,-50.335Z" class="svg-elem-9"></path>
                <path d="M1341.98,643.799l-124.354,-12.687c-15.008,147.097 6.409,294.851 38.294,419.768c48.372,189.505 120.376,325.923 120.376,325.923l110.622,-58.203c0,-0 -65.58,-125.075 -109.881,-298.635c-28.578,-111.962 -48.508,-244.325 -35.057,-376.166Z" class="svg-elem-10"></path>
                <path d="M1041.3,480.526l0.285,125c228.247,-0.521 443.584,-66.393 443.584,-66.393l-36.556,-119.535c0,-0 -197.732,60.45 -407.313,60.928Z" class="svg-elem-11"></path>
            </g>
            <g>
                <path d="M1041.81,783.723l0.154,125c-311.144,0.382 -604.695,48.676 -604.695,48.676l-20.299,-123.341c-0,-0 303.329,-49.94 624.84,-50.335Z" class="svg-elem-12"></path>
                <path d="M741.35,643.799l124.355,-12.687c15.007,147.097 -6.41,294.851 -38.295,419.768c-48.371,189.505 -120.376,325.923 -120.376,325.923l-110.622,-58.203c-0,-0 65.58,-125.075 109.881,-298.635c28.579,-111.962 48.508,-244.325 35.057,-376.166Z" class="svg-elem-13"></path>
                <path d="M1042.03,480.526l-0.285,125c-228.246,-0.521 -443.583,-66.393 -443.583,-66.393l36.555,-119.535c0,-0 197.732,60.45 407.313,60.928Z" class="svg-elem-14"></path>
            </g>
        </g>
        <path id="circle" d="M1041.67,270.192c344.947,0 625,280.054 625,625c-0,344.947 -280.053,625 -625,625c-344.947,0 -625,-280.053 -625,-625c-0,-344.946 280.053,-625 625,-625Zm-0,62.5c310.452,0 562.5,252.048 562.5,562.5c-0,310.453 -252.048,562.5 -562.5,562.5c-310.453,0 -562.5,-252.047 -562.5,-562.5c-0,-310.452 252.047,-562.5 562.5,-562.5Z" class="svg-elem-15"></path>
        <g id="circle-outer">
            <path d="M1702.19,587.033c-81.729,-175.268 -229.736,-310.891 -411.46,-377.033l-24.939,68.519c163.552,59.528 296.758,181.589 370.314,339.33l66.085,-30.816Z" class="svg-elem-16"></path>
            <path d="M356.146,1144.58c66.142,181.725 201.765,329.731 377.033,411.46l30.816,-66.085c-157.741,-73.556 -279.802,-206.762 -339.33,-370.314l-68.519,24.939Z" class="svg-elem-17"></path>
        </g>
    </g>
</svg>
