<?xml version="1.0" encoding="UTF-8" standalone="no"?>
<!DOCTYPE svg PUBLIC "-//W3C//DTD SVG 1.1//EN" "http://www.w3.org/Graphics/SVG/1.1/DTD/svg11.dtd">
<svg width="100%" height="100%" viewBox="0 0 500 500" version="1.1" xmlns="http://www.w3.org/2000/svg" xmlns:xlink="http://www.w3.org/1999/xlink" xml:space="preserve" xmlns:serif="http://www.serif.com/" style="fill-rule:evenodd;clip-rule:evenodd;stroke-linejoin:round;stroke-miterlimit:2;">
    <style>
      path, rect {
        fill: #2d2d2d;
        stroke: #2d2d2d;
      }
    @media (prefers-color-scheme: dark) {
      path, rect {
        fill: #f7f7f7;
        stroke: #f7f7f7;
      }
    }
</style>
    <g id="メイン">
        <g id="レイヤー1">
            <path d="M250,64.846C332.787,64.846 400,132.059 400,214.846C400,297.633 332.787,364.846 250,364.846C167.213,364.846 100,297.633 100,214.846C100,132.059 167.213,64.846 250,64.846ZM250,79.846C324.509,79.846 385,140.338 385,214.846C385,289.355 324.509,349.846 250,349.846C175.491,349.846 115,289.355 115,214.846C115,140.338 175.491,79.846 250,79.846Z"/>
            <g id="レイヤー2">
                <path d="M408.525,140.888C388.91,98.824 353.389,66.274 309.775,50.4L303.789,66.845C343.042,81.131 375.011,110.426 392.665,148.284L408.525,140.888Z"/>
                <path d="M85.475,274.7C101.349,318.314 133.899,353.835 175.963,373.45L183.359,357.59C145.501,339.936 116.206,307.967 101.92,268.714L85.475,274.7Z"/>
            </g>
        </g>
        <path d="M87.856,408.92C88.072,413.24 90.16,425.048 90.952,429.008L94.984,448.88L112.984,448.88L124.144,392.72L110.608,392.72L105.712,421.52C104.632,427.928 103.984,433.04 103.768,437.432L103.048,437.432C102.688,433.112 101.896,427.928 100.456,421.52L94.192,392.72L81.448,392.72L75.472,421.52C74.104,428.216 73.312,432.464 72.808,437.432L72.088,437.432C71.8,432.392 71.152,427.928 69.928,421.52L64.384,392.72L50.704,392.72L61.864,448.88L80.656,448.88L84.184,429.296C84.976,424.976 86.92,413.168 87.136,408.92L87.856,408.92Z" style="fill-rule:nonzero;"/>
        <path d="M163.384,392.72L163.384,415.04L144.664,415.04L144.664,392.72L131.344,392.72L131.344,448.88L144.664,448.88L144.664,425.48L163.384,425.48L163.384,448.88L176.704,448.88L176.704,392.72L163.384,392.72Z" style="fill-rule:nonzero;"/>
        <rect x="188.224" y="392.72" width="13.32" height="56.16" style="fill-rule:nonzero;"/>
        <path d="M251.944,392.72L208.744,392.72L208.744,403.16L223.864,403.16L223.864,448.88L236.824,448.88L236.824,403.16L251.944,403.16L251.944,392.72Z" style="fill-rule:nonzero;"/>
        <path d="M272.104,439.16L272.104,425.12L290.824,425.12L290.824,415.76L272.104,415.76L272.104,402.44L292.912,402.44L292.912,392.72L259.144,392.72L259.144,448.88L293.56,448.88L293.56,439.16L272.104,439.16Z" style="fill-rule:nonzero;"/>
        <path d="M351.664,402.44L351.664,392.72L317.896,392.72L317.896,448.88L330.856,448.88L330.856,426.488L349.576,426.488L349.576,417.128L330.856,417.128L330.856,402.44L351.664,402.44Z" style="fill-rule:nonzero;"/>
        <path d="M379.168,392C365.128,392 355.264,400.64 355.264,420.8C355.264,440.96 365.128,449.6 379.168,449.6C393.208,449.6 403.072,440.96 403.072,420.8C403.072,400.64 393.208,392 379.168,392ZM379.168,440.24C372.832,440.24 369.304,435.056 369.304,420.8C369.304,406.544 372.832,401.36 379.168,401.36C385.504,401.36 389.032,406.544 389.032,420.8C389.032,435.056 385.504,440.24 379.168,440.24Z" style="fill-rule:nonzero;"/>
        <path d="M449.296,392.72L434.608,392.72L427.048,410.864L419.56,392.72L404.872,392.72L419.92,420.8L404.872,448.88L419.56,448.88L427.048,430.736L434.608,448.88L449.296,448.88L434.248,420.8L449.296,392.72Z" style="fill-rule:nonzero;"/>
    </g>
    <g id="鳥居">
        <g>
            <path d="M249.965,188.093L249.928,218.093C324.603,218.185 395.055,229.776 395.055,229.776L399.927,200.174C399.927,200.174 327.128,188.188 249.965,188.093Z"/>
            <path d="M322.076,154.512L292.231,151.467C288.629,186.77 293.769,222.231 301.422,252.211C313.031,297.692 330.312,330.433 330.312,330.433L356.861,316.464C356.861,316.464 341.122,286.446 330.49,244.792C323.631,217.921 318.848,186.154 322.076,154.512Z"/>
            <path d="M249.913,115.326L249.981,145.326C304.76,145.201 356.441,129.392 356.441,129.392L347.668,100.704C347.668,100.704 300.212,115.212 249.913,115.326Z"/>
        </g>
        <g>
            <path d="M250.035,188.093L250.072,218.093C175.397,218.185 104.945,229.776 104.945,229.776L100.073,200.174C100.073,200.174 172.872,188.188 250.035,188.093Z"/>
            <path d="M177.924,154.512L207.769,151.467C211.371,186.77 206.231,222.231 198.578,252.211C186.969,297.692 169.688,330.433 169.688,330.433L143.139,316.464C143.139,316.464 158.878,286.446 169.51,244.792C176.369,217.921 181.152,186.154 177.924,154.512Z"/>
            <path d="M250.087,115.326L250.019,145.326C195.24,145.201 143.559,129.392 143.559,129.392L152.332,100.704C152.332,100.704 199.788,115.212 250.087,115.326Z"/>
        </g>
    </g>
</svg>
